<?xml version="1.0" standalone="no"?><!DOCTYPE svg PUBLIC "-//W3C//DTD SVG 1.1//EN"
        "http://www.w3.org/Graphics/SVG/1.1/DTD/svg11.dtd">
<svg t="1663570415462" class="icon" viewBox="0 0 1024 1024" version="1.1" xmlns="http://www.w3.org/2000/svg" p-id="3747"
     xmlns:xlink="http://www.w3.org/1999/xlink" width="200" height="200">
    <path d="M535.771429 901.485714H190.171429v-731.428571h345.6v186.514286h73.142857V133.485714c0-20.114286-16.457143-36.571429-36.571429-36.571428H153.6c-20.114286 0-36.571429 16.457143-36.571429 36.571428v804.571429c0 20.114286 16.457143 36.571429 36.571429 36.571428h418.742857c20.114286 0 36.571429-16.457143 36.571429-36.571428v-219.428572h-73.142857v182.857143z"
          fill="#4C4C4C" p-id="3748"></path>
    <path d="M970.971429 508.342857l-219.428572-219.428571-51.2 51.2 160.914286 160.914285H396.8v73.142858h455.314286l-151.771429 151.771428 51.2 51.2 219.428572-219.428571c14.628571-10.971429 14.628571-34.742857 0-49.371429z"
          fill="#4C4C4C" p-id="3749"></path>
</svg>